<?xml version="1.0" encoding="UTF-8" standalone="no"?>
<svg
   xmlns:dc="http://purl.org/dc/elements/1.1/"
   xmlns:cc="http://creativecommons.org/ns#"
   xmlns:rdf="http://www.w3.org/1999/02/22-rdf-syntax-ns#"
   xmlns:svg="http://www.w3.org/2000/svg"
   xmlns="http://www.w3.org/2000/svg"
   xmlns:sodipodi="http://sodipodi.sourceforge.net/DTD/sodipodi-0.dtd"
   xmlns:inkscape="http://www.inkscape.org/namespaces/inkscape"
   viewBox="0 0 1052.3621875 375"
   id="svg3403"
   version="1.1"
   inkscape:version="0.91 r13725"
   sodipodi:docname="Graphics_map.svg">
  <metadata
     id="metadata3433">
    <rdf:RDF>
      <cc:Work
         rdf:about="">
        <dc:format>image/svg+xml</dc:format>
        <dc:type
           rdf:resource="http://purl.org/dc/dcmitype/StillImage" />
      </cc:Work>
    </rdf:RDF>
  </metadata>
  <defs
     id="defs3431" />
  <sodipodi:namedview
     pagecolor="#ffffff"
     bordercolor="#666666"
     borderopacity="1"
     objecttolerance="10"
     gridtolerance="10"
     guidetolerance="10"
     inkscape:pageopacity="0"
     inkscape:pageshadow="2"
     inkscape:window-width="1366"
     inkscape:window-height="715"
     id="namedview3429"
     showgrid="false"
     inkscape:zoom="0.83906474"
     inkscape:cx="551.79258"
     inkscape:cy="185.11639"
     inkscape:window-x="0"
     inkscape:window-y="0"
     inkscape:window-maximized="1"
     inkscape:current-layer="svg3403" />
  <path
     d="m 104.12281,124.54194 c 0,1.52559 -0.88792,2.28838 -2.66384,2.28838 -1.989025,0 -2.983497,-0.76278 -2.983497,-2.28838 0,-7.03461 -1.953454,-12.75556 -5.860445,-17.16235 -3.480776,-3.72917 -6.854917,-5.59381 -10.122173,-5.59381 -4.8304,0 -7.849472,2.28838 -9.056639,6.86514 l -0.426214,3.43256 0,0.25427 c 0,3.39012 2.09558,8.09411 6.286659,14.11157 1.136599,1.52558 2.09558,2.71212 2.876946,3.5597 1.136598,1.10175 3.018989,1.65272 5.647337,1.65272 2.770392,0 7.245641,-0.63566 13.426076,-1.90699 6.25117,1.27133 10.76183,1.90699 13.53255,1.90699 2.69933,0 4.5818,-0.55091 5.64734,-1.65272 2.9835,-3.13596 5.46972,-6.94992 7.45874,-11.44189 1.1366,-2.54265 1.70486,-4.61911 1.70486,-6.22948 0,-5.33955 -2.02452,-8.68733 -6.07355,-10.04354 -1.06554,-0.33902 -2.20214,-0.50854 -3.40971,-0.50854 -3.26759,0 -6.60632,1.90699 -10.01571,5.72095 -3.97797,4.23771 -5.967,9.9165 -5.967,17.03531 m 23.12237,-12.20508 c 0,3.39013 -1.95345,7.37367 -5.86044,11.95003 l -2.7704,2.79691 -1.06553,0.76277 c -1.34971,0.25427 -2.77039,0.3814 -4.26214,0.3814 -4.40419,0 -6.60632,-1.0594 -6.60632,-3.1783 0.14207,-6.52609 1.77592,-11.61128 4.90146,-15.25586 2.69933,-3.22075 5.46972,-4.83102 8.31134,-4.83102 3.62282,0 5.93151,1.56793 6.92598,4.70389 l 0.42622,2.66977 m -10.12217,32.29117 c 0,-2.20359 -5.22112,-3.30543 -15.66362,-3.30543 -2.841454,0 -5.363166,0.12712 -7.5653,0.38139 l -2.557285,0.25427 c -3.835927,0.59328 -5.753891,1.4408 -5.753891,2.54264 0,1.27132 0.958982,1.90698 2.876945,1.90698 l 12.892901,-1.27132 12.78642,1.27132 c 1.98894,0 2.9835,-0.59327 2.9835,-1.77985 m 5.967,3.05117 c -0.14208,5.7633 -7.38769,8.64499 -21.73659,8.64499 -14.206868,0 -21.417184,-2.88169 -21.630126,-8.64499 -0.07104,-5.42433 -0.745875,-10.25526 -2.024517,-14.49267 -0.78139,-2.28838 -2.273115,-5.21242 -4.475249,-8.77212 -2.770392,-4.49197 -4.155588,-8.4755 -4.155588,-11.95002 0,-5.42434 1.953454,-9.6197 5.860445,-12.586185 2.202134,-1.695062 4.652865,-2.542643 7.352194,-2.542643 3.693884,0 7.210151,1.610374 10.548883,4.831018 0,-3.898748 0.319661,-6.568523 0.958982,-8.009321 0.497245,-1.610374 2.131071,-3.5597 4.901463,-5.848079 l 0,-2.924039 -4.368695,-3.178304 0,-4.576758 3.942481,0 1.278643,-4.703889 3.622824,0 1.38519,4.703889 3.83593,0 0,4.576758 -4.26214,3.178304 0,2.924039 c 2.69933,2.373166 4.36869,4.407281 5.00801,6.102343 l 0.74588,3.686832 c 0.0711,1.017058 0.14208,2.373165 0.21311,4.068225 3.33865,-3.220644 6.78393,-4.831018 10.33594,-4.831018 4.75933,0 8.4533,2.161247 11.08124,6.483738 1.49175,2.54265 2.23762,5.42434 2.23762,8.64499 0,3.47491 -1.3852,7.50079 -4.15559,12.07706 l -2.45073,4.06823 c -2.62827,4.74623 -3.97797,11.10314 -4.04903,19.06982 M 75.462475,112.33595 c 0,-3.5597 1.49175,-5.84808 4.475249,-6.86514 0.852428,-0.33903 1.740347,-0.50854 2.663838,-0.50854 2.983499,0 5.824955,1.61038 8.524284,4.83102 3.054562,3.72918 4.652865,8.81447 4.794909,15.25586 0.07106,1.86464 -1.562813,2.92404 -4.901463,3.17831 l -1.598303,0 c -1.420686,0 -2.876946,-0.12714 -4.368695,-0.3814 -2.344178,-1.35611 -4.688356,-4.02589 -7.032534,-8.00933 -1.704857,-2.96638 -2.557285,-5.46668 -2.557285,-7.50079"
     id="BlackKing"
     inkscape:connector-curvature="0" />
  <path
     d="m 247.89571,142.89 c 0,1.3771 0.7145,2.0656 2.14351,2.0656 l 6.43052,-0.6455 5.59176,-0.3873 1.39794,0 10.90415,0.77461 2.2367,0.25819 c 1.42891,0 2.14344,-0.68853 2.14351,-2.0656 -7e-5,-2.4959 -4.16285,-3.873 -12.48797,-4.1312 l -2.88908,0 c -7.02081,0 -11.71194,0.73158 -14.07252,2.1947 -0.93196,0.51641 -1.39794,1.1619 -1.39794,1.9365 M 236.24715,88.926 c -1.1805,0 -1.92607,0.81765 -2.2367,2.4529 -0.0621,0.2582 -0.0932,0.51639 -0.0932,0.77461 0,1.6353 0.59026,2.6681 1.77073,3.0984 0.18638,0.08607 0.37278,0.12911 0.55917,0.12911 1.49114,0 2.23671,-1.0758 2.23671,-3.2275 0,-2.1517 -0.74557,-3.2275 -2.23671,-3.2275 m 12.20861,-8.1333 c -1.61538,0 -2.4231,1.0758 -2.4231,3.2275 0,2.1517 0.80765,3.2275 2.4231,3.2275 1.49113,0 2.2367,-1.0758 2.2367,-3.2275 0,-2.1517 -0.74557,-3.2275 -2.2367,-3.2275 m 29.72959,0 c -1.05627,0 -1.7708,0.73158 -2.14351,2.1947 l -0.0932,1.0328 c -7e-5,2.1517 0.74549,3.2275 2.2367,3.2275 1.55322,0 2.32983,-1.0758 2.3299,-3.2275 7e-5,-2.1517 -0.77668,-3.2275 -2.3299,-3.2275 m 12.11548,8.1333 c -1.49121,0 -2.23678,1.0758 -2.2367,3.2275 7e-5,2.1517 0.74549,3.2275 2.2367,3.2275 1.55322,0 2.32983,-1.0758 2.3299,-3.2275 -9e-5,-1.6353 -0.59033,-2.6681 -1.77072,-3.0984 -0.18647,-0.08607 -0.37287,-0.12911 -0.55918,-0.12911 m -6.71011,61.71 c -8e-5,2.4099 -3.19978,4.0882 -9.59897,5.0349 l -9.04023,0.77458 -1.67753,0 c -7.57984,0 -13.35785,-0.90369 -17.33474,-2.7111 -1.92607,-0.77461 -2.88907,-1.8074 -2.88907,-3.0984 0,-2.4959 0.49704,-5.3361 1.49113,-8.5206 0.68344,-1.8935 1.02516,-3.2275 1.02516,-4.0021 0,-1.6353 -1.42898,-4.8198 -4.28702,-9.5534 -1.55329,-2.4959 -2.45414,-4.2173 -2.70268,-5.164 0,-0.51639 -0.18639,-1.6783 -0.55919,-3.4857 l -1.21154,-6.455 c -0.80765,-4.2173 -1.33579,-8.6927 -1.58433,-13.426 -2.85804,-1.6353 -4.28702,-4.2603 -4.28702,-7.8751 0,-3.0984 1.02516,-5.2931 3.07547,-6.5841 0.68343,-0.43035 1.42898,-0.64552 2.2367,-0.64552 2.05031,0 3.57249,1.291 4.5666,3.873 0.43493,1.1188 0.65238,2.2377 0.65238,3.3566 l -0.46598,4.9058 c 0,3.873 1.98816,8.6067 5.96455,14.201 0.31064,-3.5287 0.46598,-7.2296 0.46598,-11.103 0,-5.7664 -0.74557,-9.4243 -2.23671,-10.973 -0.12426,-0.17215 -0.24853,-0.30123 -0.37277,-0.3873 -1.11836,-0.94674 -1.67753,-2.625 -1.67753,-5.0349 0,-3.1845 1.0562,-5.3792 3.16866,-6.5841 0.68345,-0.43033 1.39794,-0.6455 2.14351,-0.6455 2.17455,0 3.72784,1.3771 4.6598,4.1312 0.37278,0.94675 0.55909,1.9795 0.55918,3.0984 l -0.65238,5.5513 c 0,4.8197 1.70849,12.178 5.12578,22.076 1.30467,-8.0903 1.95704,-14.287 1.95711,-18.59 -7e-5,-3.6148 -0.46607,-6.9284 -1.39794,-9.9407 -0.37287,-1.1189 -0.55925,-1.9795 -0.55918,-2.582 -7e-5,-3.1845 1.02508,-5.3792 3.07547,-6.5841 0.68335,-0.43032 1.39786,-0.6455 2.1435,-0.6455 2.17448,0 3.69666,1.4201 4.56661,4.2603 0.31057,0.94673 0.4659,1.9365 0.46598,2.9693 -8e-5,0.17213 -0.52819,2.4529 -1.58434,6.8423 -0.24861,1.1188 -0.37286,3.0123 -0.37279,5.6804 -7e-5,4.3033 0.6523,10.5 1.95712,18.59 3.35498,-9.8116 5.03251,-17.17 5.03258,-22.076 l -0.55917,-5.4222 0,-0.12911 c -9e-5,-3.1845 1.05612,-5.3792 3.16866,-6.5841 0.68336,-0.43033 1.39787,-0.6455 2.14351,-0.6455 2.17447,0 3.72777,1.3771 4.6598,4.1312 0.3727,0.94675 0.55909,1.9795 0.55917,3.0984 -8e-5,2.4099 -0.55926,4.1312 -1.67753,5.164 -1.73976,1.5492 -2.60956,5.3361 -2.60949,11.361 -7e-5,3.7869 0.15524,7.4448 0.46598,10.974 3.97624,-5.5943 5.96447,-10.328 5.96454,-14.201 l -0.46598,-4.9058 c -7e-5,-3.0123 0.99405,-5.164 2.98228,-6.455 0.68335,-0.51639 1.4289,-0.7746 2.2367,-0.7746 2.23663,0 3.82096,1.3771 4.75299,4.1312 l 0.55918,2.4529 0,0.6455 c -7e-5,3.4426 -1.42905,6.0677 -4.28702,7.8751 -0.37286,5.9386 -1.42905,13.211 -3.16866,21.818 -0.12433,0.68854 -0.18647,1.2049 -0.18639,1.5492 -8e-5,0.60247 -0.46606,1.5922 -1.39794,2.9693 l -1.11835,1.9365 c -2.98235,4.7337 -4.47348,8.0042 -4.47341,9.8116 -7e-5,0.51639 0.7455,3.1845 2.2367,8.0042 0.24846,1.7213 0.3727,3.2275 0.37278,4.5185 m -20.22375,-73.845 c -1.18057,0 -1.92614,0.81764 -2.2367,2.4529 -0.0622,0.2582 -0.0933,0.51639 -0.0932,0.77459 -8e-5,1.6353 0.59015,2.6681 1.77072,3.0984 0.18632,0.08607 0.37272,0.12911 0.55919,0.12911 1.49106,0 2.23663,-1.0758 2.2367,-3.2275 -9e-5,-1.5492 -0.52818,-2.582 -1.58433,-3.0984 -0.18647,-0.08606 -0.40392,-0.1291 -0.65237,-0.1291 m 16.77528,50.349 c -7e-5,-2.7541 -5.59183,-4.1312 -16.77528,-4.1312 -11.2456,0 -16.8684,1.4201 -16.8684,4.2603 0,1.2049 0.80765,1.8074 2.4231,1.8074 1.86392,0 4.19382,-0.21516 6.9897,-0.6455 l 6.05774,-0.25819 1.49113,0 c 1.73954,0 5.03251,0.21515 9.87907,0.6455 l 4.5666,0.25819 c 1.49106,0 2.23663,-0.6455 2.2367,-1.9365"
     id="BlackQueen"
     inkscape:connector-curvature="0" />
  <path
     d="m 414.87,156.32 -2.4529,-2.71794 0,-10.1565 13.039,-14.30494 0,-28.46693 -10.07,-11.014804 0,-12.731504 3.6148,-4.005382 9.1661,0 2.3238,2.431839 0,3.576234 4.9058,0 0,-3.576234 2.1947,-2.431839 14.33,0 2.1947,2.431839 0,3.576234 4.9058,0 0,-3.576234 2.1947,-2.431839 9.2952,0 3.6148,4.005382 0,12.731504 -10.07,11.014804 0,28.46693 13.039,14.30494 0,10.1565 -2.582,2.71794 -59.644,0 m 15.234,-30.46918 0,4.86368 29.306,0 0,-4.86368 -29.306,0 m 0,-25.74889 0,4.86368 29.306,0 0,-4.86368 -29.306,0"
     id="BlackRook"
     inkscape:connector-curvature="0" />
  <path
     d="m 597.33581,128.92081 c -3.39368,0 -5.09047,0.63906 -5.0904,1.9172 -9e-5,1.11833 1.4971,1.79737 4.49153,2.03702 l 5.48964,0 c 6.65399,0 9.98118,-0.67902 9.98118,-2.03702 -10e-5,-1.27817 -1.69688,-1.9172 -5.0904,-1.9172 l -9.7817,0 m 0,-7.42914 c -2.92787,0 -4.55818,0.39943 -4.89078,1.19825 -0.13316,0.15978 -0.19971,0.39942 -0.19962,0.71895 -9e-5,0.87872 0.6986,1.39799 2.09604,1.55773 1.72997,0.23964 4.3584,0.35947 7.88521,0.35947 3.52681,0 6.18825,-0.11983 7.98493,-0.35947 1.33072,-0.15978 1.99616,-0.67901 1.99624,-1.55773 -9e-5,-1.27816 -1.69688,-1.91719 -5.0904,-1.91719 l -9.7817,0 m 18.56529,5.15247 1.99623,9.22651 c -8e-5,2.79588 -2.36231,4.43352 -7.08663,4.91282 3.46009,1.59763 6.68731,2.3965 9.68197,2.3965 0.39918,0 2.36216,-0.11984 5.88889,-0.35949 2.92771,0 5.32319,1.83729 7.18644,5.51195 0.26608,0.63905 0.5988,1.35798 0.99812,2.15685 l -3.59322,6.59036 c -1.06476,1.59764 -2.19594,2.63615 -3.3936,3.11545 -0.26626,-1.67755 -2.39556,-2.71597 -6.38795,-3.11545 l -2.39548,-0.23964 c -8.18441,-0.79882 -13.70768,-2.9157 -16.56906,-6.35071 -2.59518,3.27518 -6.5544,5.15246 -11.87767,5.63176 -1.19774,0.15979 -2.76148,0.39943 -4.69115,0.71896 -4.85753,0.47929 -7.6855,1.31808 -8.48361,2.51633 -0.13308,0.23964 -0.2329,0.51923 -0.29944,0.83876 -1.73004,-0.87871 -3.36035,-2.8758 -4.89077,-5.99124 -0.59888,-1.27817 -1.29756,-2.51633 -2.09605,-3.71457 1.79661,-3.99414 3.72628,-6.39063 5.78908,-7.1895 0.73197,-0.31953 1.53042,-0.4793 2.39548,-0.4793 l 5.88889,0.35949 c 3.06084,0 6.28814,-0.79885 9.68197,-2.3965 -4.7244,-0.47929 -7.08663,-2.11694 -7.08663,-4.91282 0,-0.23964 0.53233,-2.27667 1.59699,-6.11107 0.33269,-1.27816 0.49905,-2.15685 0.49905,-2.63615 -4.05903,-5.91133 -6.08851,-11.14343 -6.08851,-15.69696 0,-5.2723 2.16261,-10.06492 6.48776,-14.378986 3.85934,-3.91431 6.65406,-5.991243 8.38388,-6.230893 -1.46401,-2.156848 -2.19594,-4.39361 -2.19586,-6.710193 -8e-5,-3.754482 1.56366,-6.071065 4.69115,-6.949843 0.73186,-0.239557 1.4971,-0.359363 2.29567,-0.359465 3.32695,1.02e-4 5.48957,1.477809 6.48776,4.43352 l 0.49906,2.516323 0,0.359474 c -8e-5,2.236762 -0.73204,4.473431 -2.19586,6.710193 1.26423,0.399413 3.16058,1.637638 5.68927,3.714571 6.12168,5.112466 9.18252,10.744329 9.18252,16.895219 -7e-5,4.63325 -1.99631,9.70572 -5.9887,15.21803 m -11.87767,-11.14343 0,-5.51195 3.49341,0 0,-4.55334 -3.49341,0 0,-5.15247 -3.59322,0 0,5.15247 -3.49341,0 0,4.55334 3.49341,0 0,5.51195 3.59322,0 m -1.79661,-33.790431 c -1.33088,0 -2.16269,0.718931 -2.4953,2.156848 l -0.0998,0.718931 c -9e-5,1.517813 0.66532,2.476412 1.99623,2.875797 0.19954,0.07989 0.39916,0.119815 0.59888,0.119815 1.6634,0 2.49522,-0.998509 2.49529,-2.995621 -8e-5,-1.917198 -0.83189,-2.875797 -2.49529,-2.875797"
     id="BlackBishop"
     inkscape:connector-curvature="0" />
  <path
     d="m 755.77548,105.91211 c 1.79357,0 3.69484,-1.36878 5.70372,-4.10624 1.07618,-1.41594 1.61427,-2.643128 1.61427,-3.68145 0,-1.227188 -0.86094,-1.840727 -2.58282,-1.840727 -2.00881,0 -3.69484,1.179917 -5.05802,3.53986 -0.71747,1.132757 -1.07618,2.312667 -1.07618,3.539857 0,1.69913 0.46633,2.5487 1.39903,2.5487 m -1.8295,-31.009277 c 0.1435,0 0.50221,-0.04721 1.07618,-0.141605 3.22852,0 6.67228,1.415944 10.33161,4.247831 l 0.64571,0.566367 c 2.08058,-4.436588 3.65899,-6.654936 4.73517,-6.654936 2.29581,1.699132 3.80254,3.539859 4.51993,5.522181 0.35873,0.943977 0.89678,2.92632 1.61426,5.946963 0.57396,-0.188811 1.14795,-0.283178 1.72188,-0.283178 6.02658,0 11.76623,4.861371 17.21879,14.583892 6.52882,11.233222 9.79311,26.525642 9.79311,45.876142 0,4.34226 -0.14349,8.25963 -0.43046,11.752 l -45.4144,0 c 0.1435,-6.32459 1.90127,-12.31904 5.27325,-17.98281 0.35873,-0.75517 0.86094,-1.6047 1.50665,-2.5487 2.65459,-4.43659 4.26885,-7.83486 4.84278,-10.1948 0.28698,-1.22708 0.50221,-2.50154 0.64571,-3.82305 -4.73517,2.45427 -8.28655,6.08856 -10.65421,10.90277 -1.07618,2.35983 -2.25997,4.81421 -3.55138,7.36291 -0.35873,0.75518 -0.89678,1.13275 -1.61426,1.13275 -1.79365,0 -2.69044,-1.4631 -2.69044,-4.38942 -0.71747,1.22719 -1.54249,1.84072 -2.4752,1.84072 l -2.15235,-0.70797 c -3.08506,-1.03837 -5.27325,-2.83189 -6.56466,-5.38058 -0.43046,-0.84956 -0.89679,-1.98232 -1.39903,-3.39827 0.50223,-4.05907 2.97744,-12.13039 7.4256,-24.21253 3.22853,-8.684415 5.23742,-14.915116 6.02658,-18.690235 0.0718,-0.849566 0.10761,-2.076644 0.10761,-3.681453 0,-1.321511 -0.17936,-3.87021 -0.53809,-7.646097 m -6.45704,49.699515 c -1.72188,0 -2.86983,0.99115 -3.44376,2.97348 -0.14349,0.47198 -0.21524,0.94396 -0.21524,1.41595 0,0.37757 0.10761,0.84956 0.32286,1.41594 1.86534,0 3.01328,-1.03836 3.44375,-3.11508 0.0718,-0.28318 0.10763,-0.61359 0.10763,-0.99116 0,-0.1888 -0.0718,-0.75516 -0.21524,-1.69913 m 52.84009,21.8051 0,-5.239 c 0,-15.38673 -2.97744,-27.98874 -8.932,-37.80602 -5.16563,-8.495665 -9.86479,-12.743497 -14.0978,-12.743497 l -1.29141,-0.283188 c -0.14349,0.09439 -0.25111,0.188789 -0.32286,0.283188 -0.93263,0 -1.39903,0.519172 -1.39903,1.557539 0,0.377599 0.21524,0.849577 0.6457,1.415943 3.87423,0.471967 8.10715,4.106237 12.69903,10.902765 5.81134,8.87318 8.71693,21.71077 8.71693,38.51345 l 0,0.84958 c 0,4.1534 0.68156,6.23015 2.04473,6.23015 1.14795,0 1.79365,-1.22719 1.93711,-3.68145"
     id="BlackKnight"
     inkscape:connector-curvature="0" />
  <path
     d="m 920.10166,156.31999 c -0.10043,-1.13467 -0.15074,-3.35676 -0.15074,-6.66618 0,-11.91357 3.91986,-20.75537 11.7598,-26.52319 2.31168,-1.7966 5.12585,-3.45125 8.44277,-4.96418 -3.91985,-1.13466 -6.58339,-3.92409 -7.99047,-8.36817 -0.40205,-1.41834 -0.60305,-2.88392 -0.60305,-4.39684 0,-6.33527 3.46757,-10.826592 10.4027,-13.473638 -1.80928,-2.836671 -2.71386,-5.531508 -2.71375,-8.084511 -1.3e-4,-4.255006 2.21113,-7.422584 6.63361,-9.502846 2.01002,-0.94556 4.17093,-1.418335 6.48284,-1.418335 5.0253,0 8.74418,1.843836 11.15651,5.531507 1.10547,1.60741 1.65829,3.404005 1.6584,5.389674 -1.1e-4,2.742078 -0.85445,5.436915 -2.56298,8.084511 3.71876,1.418335 6.38217,3.309412 7.99048,5.673341 1.60807,2.553007 2.4121,5.153247 2.41222,7.800847 -1.7e-4,4.91682 -1.80929,8.65184 -5.4275,11.20495 -0.90471,0.75646 -1.90983,1.27651 -3.01527,1.56017 9.24668,4.44408 15.22702,10.25926 17.941,17.4452 1.40697,3.97133 2.11057,8.65184 2.11069,14.04162 -1.2e-4,3.30942 -0.0503,5.53151 -0.15074,6.66618 l -64.37646,0"
     id="BlackPawn"
     inkscape:label="#BlackRook"
     inkscape:connector-curvature="0" />
  <path
     d="m 102.88202,299.15 c -14.159336,0 -21.346065,-2.83059 -21.55936,-8.49188 -0.355773,-7.77362 -1.458675,-13.64637 -3.30864,-17.61757 -0.782686,-1.60546 -1.885596,-3.54884 -3.308639,-5.83024 -2.419248,-3.80233 -3.771111,-7.01316 -4.055752,-9.63258 -0.07116,-0.67596 -0.106739,-1.39418 -0.106739,-2.15465 0,-5.32327 1.885596,-9.50583 5.656707,-12.5478 0.925023,-0.67597 1.885596,-1.22522 2.881718,-1.64767 3.77111,-1.60546 7.506671,-1.35198 11.20627,0.76047 1.351945,0.76045 2.703807,1.77443 4.055752,3.04187 l 0.106738,0.12675 c 0,-1.77442 0.07114,-3.67558 0.213461,-5.70349 0,-0.5915 0.249026,-1.39419 0.747104,-2.40815 1.138484,-2.19687 2.490346,-3.92908 4.055752,-5.19652 0.284608,-0.169 0.569228,-0.38024 0.853838,-0.63372 l 0,-3.04187 -4.375939,-3.04186 0,-4.5628 3.949022,0 1.387497,-4.81629 3.20191,0 1.38749,4.81629 3.94902,0 0,4.5628 -4.37594,3.04186 0,3.04187 c 3.70001,2.78838 5.58552,5.57675 5.65671,8.36513 0.1423,1.68989 0.21346,3.54884 0.21346,5.57675 l 0.10674,-0.12675 c 4.48267,-4.47827 9.17913,-5.91467 14.08823,-4.30931 1.28077,0.42246 2.49035,1.05617 3.62883,1.90117 3.98457,2.8728 6.01245,7.1399 6.08363,12.80108 0,3.37989 -1.42304,7.39339 -4.26921,12.04023 -2.34807,3.88686 -3.80674,6.71746 -4.37595,8.49188 -1.20958,3.80233 -1.92114,8.70305 -2.1346,14.70274 -0.1423,5.66128 -7.32884,8.49188 -21.55936,8.49188 m 0,-42.71316 3.09518,-5.83025 c 0.49808,-1.26744 0.88939,-2.45036 1.17403,-3.54884 0.14232,-0.59147 0.21348,-1.81664 0.21348,-3.67559 0,-4.98525 -1.45868,-7.47792 -4.37594,-7.47792 -3.05955,0 -4.589407,2.49267 -4.589407,7.47792 0,1.85895 0.07118,3.08408 0.213461,3.67559 0.569226,2.2814 1.778866,4.98525 3.628826,8.11164 0.42693,0.59148 0.64039,1.01396 0.64039,1.26745 m 28.49725,-0.25349 c 0,-3.80234 -1.06731,-6.71746 -3.20191,-8.74537 -1.77879,-1.77442 -3.87784,-2.66163 -6.29709,-2.66163 -3.05955,0 -6.36827,1.85885 -9.92567,5.57675 -4.19803,4.30931 -6.58173,10.13956 -7.15093,17.49093 0,0.59147 1.31631,1.26744 3.94902,2.02791 3.05963,0.67598 8.25378,1.01396 15.58295,1.01396 l 4.80287,-7.60467 c 1.49422,-2.70385 2.24134,-5.06978 2.24134,-7.09769 m -28.49725,17.11001 c -1.77886,0.92947 -7.186477,1.7322 -16.222839,2.40814 -1.351945,0.0845 -2.454797,0.16899 -3.30864,0.25349 0.711547,3.21083 1.174034,6.75967 1.387495,10.64614 4.909594,-1.85895 10.957425,-2.78838 18.144154,-2.78838 7.32876,0 13.37725,0.92945 18.14415,2.78838 0.21346,-4.22478 0.67596,-7.77363 1.3875,-10.64614 l -15.79626,-1.52093 c -1.35194,-0.25348 -2.59707,-0.63371 -3.73556,-1.1407 M 74.385132,256.18316 c 0,2.61942 1.743234,6.59071 5.229785,11.91359 0.853843,1.26744 1.458675,2.19696 1.814415,2.78837 l 1.921146,0 c 7.328843,0 12.665441,-0.59147 16.009547,-1.77442 1.067305,-0.33798 1.600955,-0.76045 1.600955,-1.26744 -0.56923,-7.35118 -2.9529,-13.18103 -7.150931,-17.49093 -3.486551,-3.7178 -6.795191,-5.57675 -9.925671,-5.57675 -0.996122,0 -2.063425,0.25348 -3.20191,0.76046 -2.846169,0.84496 -4.767315,3.08408 -5.763437,6.71746 l -0.533651,3.4221 0,0.50696 m 28.49724,38.40327 c 6.68838,0 11.31375,-0.50699 13.87494,-1.52094 0.64038,-0.2535 0.96058,-0.54924 0.96058,-0.88723 0,-2.19687 -4.9096,-3.29535 -14.72895,-3.29535 -3.771114,0 -7.435493,0.29575 -10.992978,0.88722 -2.632708,0.50697 -3.949021,1.30966 -3.949021,2.40814 0,1.26745 4.198031,2.07013 12.594339,2.40815 l 2.24134,0"
     id="WhiteKing"
     inkscape:connector-curvature="0" />
  <path
     d="m 263.03125,270.10002 4.10657,0 c 0.93324,0 2.05321,0.043 3.35992,0.12908 l 9.23984,0.77461 0.0933,0 c 1.1199,0 1.67989,-0.21518 1.67996,-0.6455 l 0,-0.51641 c -9e-5,-2.58199 -4.13772,-4.26029 -12.41281,-5.03489 -1.49337,-0.17215 -2.80001,-0.25821 -3.91991,-0.25821 -6.09767,0 -10.7956,0.86067 -14.09291,2.582 -1.4933,0.77458 -2.23995,1.6783 -2.23995,2.71109 l 0,0.51641 c 0,0.43032 0.56,0.6455 1.67996,0.6455 l 12.50607,-0.90369 m 17.26588,5.8095 c -4.91553,-0.86066 -9.95555,-1.291 -15.11948,-1.291 -5.41327,0 -10.45293,0.43034 -15.11948,1.291 0.74664,0.86066 1.11997,2.539 1.11997,5.0349 0,1.63529 -0.18666,2.62499 -0.55997,2.96929 3.73324,-0.94673 8.58631,-1.4201 14.55993,-1.4201 5.97362,0 10.82597,0.47337 14.55993,1.4201 -0.3734,-0.34427 -0.56007,-1.334 -0.55999,-2.96929 -8e-5,-2.496 0.37326,-4.1742 1.11997,-5.0349 m -15.11948,11.10299 c -3.17333,0 -6.71991,0.21517 -10.63945,0.64551 -3.04884,0.34425 -4.57323,1.334 -4.57323,2.9693 0,2.1516 5.07097,3.22749 15.21275,3.22749 10.14178,0 15.21274,-1.07579 15.21274,-3.22749 -7e-5,-0.68854 -0.4045,-1.334 -1.2133,-1.9365 -2.36444,-1.1189 -7.03099,-1.6783 -13.99966,-1.6783 m 0,-67.51894 c -1.55561,0 -2.33335,1.0328 -2.33328,3.09839 -9e-5,2.2377 0.77767,3.3566 2.33328,3.3566 1.49322,0 2.23987,-1.1189 2.23995,-3.3566 -8e-5,-2.06559 -0.74673,-3.09839 -2.23995,-3.09839 m 0,-3.7439 c 2.23987,0 3.79541,1.4201 4.66655,4.2603 l 0.46666,2.58199 0,0.38731 c -8e-5,0.51639 -0.24896,1.5922 -0.74665,3.2275 -0.87114,3.5287 -1.30671,6.5841 -1.30664,9.16609 -7e-5,4.2173 0.68436,10.45699 2.05329,18.71999 3.35984,-9.81159 5.0398,-17.21299 5.03987,-22.20498 l -0.55997,-5.5513 c -10e-5,-3.0123 0.96432,-5.16399 2.89326,-6.45499 0.68433,-0.51639 1.43098,-0.77458 2.23994,-0.77458 2.23988,0 3.8265,1.377 4.75989,4.13119 0.37325,1.0328 0.55992,2.0656 0.55999,3.0984 -7e-5,2.2377 -0.56007,4.0021 -1.67996,5.2931 -1.68003,2.32379 -2.5511,6.11069 -2.61327,11.36099 -7e-5,2.2378 0.15547,5.85249 0.46666,10.84399 4.04425,-5.7665 6.06644,-10.45699 6.06651,-14.07199 l -0.46664,-5.0349 c -10e-5,-2.84019 0.93323,-4.94879 2.79993,-6.32589 0.74657,-0.60248 1.52431,-0.90372 2.33327,-0.90372 2.11546,0 3.70201,1.334 4.75989,4.0021 l 0.55999,2.45289 0,0.77458 c -7e-5,3.5288 -1.43112,6.1968 -4.29323,8.0042 -0.12452,3.70089 -1.1512,10.97299 -3.07992,21.81798 -0.12453,0.51641 -0.21787,0.98976 -0.28,1.4201 -8e-5,1.2049 -0.99563,3.2705 -2.9866,6.19679 -2.67558,3.7009 -4.0133,6.5841 -4.01323,8.6497 -7e-5,0.94671 0.74658,3.48569 2.23994,7.61689 0.24882,0.77461 0.37325,1.9365 0.37332,3.4857 l 0,0.90369 c -0.0623,0.25819 -0.0934,0.55942 -0.0933,0.90368 l 0,0.12911 0.0933,0.12909 c -7e-5,3.0984 -6.00434,4.8197 -18.01267,5.164 l -2.33328,0 -3.9199,-0.1291 -0.0933,0 c -5.84884,-0.2582 -10.2975,-0.94673 -13.34612,-2.0656 -1.92887,-0.77458 -2.89327,-1.7643 -2.89327,-2.9693 0.0622,-0.0861 0.0622,-0.60246 0,-1.54919 -0.0622,-0.17213 -0.0622,-0.34427 0,-0.51639 0,-1.9795 0.46666,-4.2603 1.39997,-6.8423 0.74665,-2.0656 1.11997,-3.4857 1.11997,-4.26029 0,-1.3771 -0.52887,-3.0123 -1.58663,-4.9058 l -4.57322,-7.22959 c -0.49775,-0.94673 -0.74664,-1.8504 -0.74664,-2.7111 -1.92887,-10.92999 -3.01768,-18.03099 -3.26659,-21.30098 -0.0622,-0.68854 -0.0933,-1.334 -0.0933,-1.9365 -2.86218,-1.8074 -4.29323,-4.4754 -4.29323,-8.0042 0,-2.84019 0.93331,-4.94879 2.79993,-6.32589 0.80889,-0.60248 1.61779,-0.90372 2.42661,-0.90372 2.1777,0 3.73324,1.3771 4.66655,4.1312 0.37332,0.94673 0.55997,1.9795 0.55997,3.09839 l -0.46665,5.0349 c 0,3.7869 1.99104,8.47759 5.97318,14.07199 0.31111,-3.7869 0.46666,-7.4017 0.46666,-10.84399 0,-4.7336 -0.40443,-7.8751 -1.2133,-9.42429 -0.31111,-0.60246 -0.77774,-1.291 -1.39997,-2.0656 -1.11997,-1.0328 -1.67996,-2.7541 -1.67996,-5.164 0,-3.0123 1.02664,-5.20699 3.07993,-6.58409 0.68442,-0.43035 1.43105,-0.6455 2.23994,-0.6455 2.1777,0 3.73324,1.377 4.66655,4.13119 0.37324,0.94673 0.5599,1.9795 0.55997,3.0984 l -0.55997,5.4222 0,0.1291 c 0,4.90579 1.67989,12.30799 5.03988,22.20498 1.30656,-7.832 1.95988,-14.07199 1.95995,-18.71999 -7e-5,-3.44259 -0.46673,-6.71319 -1.39996,-9.81159 -0.37339,-1.2049 -0.56006,-2.0656 -0.55998,-2.582 -8e-5,-3.01229 0.99541,-5.16399 2.9866,-6.45499 0.68434,-0.51639 1.43098,-0.77458 2.23994,-0.77458 m 26.97274,15.87899 c -0.99562,0 -1.71111,0.68854 -2.14661,2.06559 -0.0623,0.34427 -0.0934,0.68852 -0.0933,1.0328 -8e-5,1.7213 0.55991,2.7972 1.67996,3.2275 0.18658,0.0861 0.37326,0.12909 0.55999,0.12909 1.5554,0 2.33321,-1.1189 2.33328,-3.3566 -8e-5,-2.06559 -0.77788,-3.09839 -2.33328,-3.09839 m -12.22629,-8.2624 c -1.0578,0 -1.77336,0.73157 -2.14661,2.1947 l -0.0933,1.0328 c -8e-5,1.5492 0.52879,2.582 1.58663,3.0984 0.18658,0.0861 0.40435,0.12909 0.65331,0.12909 1.61764,0 2.42654,-1.0758 2.42661,-3.2275 7e-5,-2.1517 -0.80897,-3.2275 -2.42661,-3.2275 m -29.67942,0 c -1.55546,0 -2.33327,1.0758 -2.33327,3.2275 0,2.1517 0.77773,3.2275 2.33327,3.2275 1.4933,0 2.23995,-1.0758 2.23995,-3.2275 0,-2.1517 -0.74665,-3.2275 -2.23995,-3.2275 m -12.22629,8.2624 c -1.55547,0 -2.33328,1.0328 -2.33328,3.09839 0,2.2378 0.77774,3.3566 2.33328,3.3566 1.4933,0 2.23995,-1.1189 2.23995,-3.3566 0,-1.46309 -0.52888,-2.45289 -1.58663,-2.96929 -0.18668,-0.0861 -0.40444,-0.12909 -0.65333,-0.12909 m 27.15926,8.26239 c -0.87114,7.57379 -1.99111,13.03899 -3.35992,16.39599 l -1.39997,3.09839 0,0.12911 c -0.18674,-0.25822 -0.99562,-1.5492 -2.4266,-3.87299 -1.80445,-2.9263 -3.70216,-8.4776 -5.6932,-16.65399 0.12444,1.2049 0.18667,2.4529 0.18667,3.7439 0,4.04509 -0.52888,10.28499 -1.58663,18.71998 -3.35992,-2.7541 -6.62651,-7.14349 -9.7994,-13.16799 1.05773,7.4017 1.86662,12.26399 2.42661,14.58799 0.37333,1.7213 0.83998,2.7111 1.39996,2.9693 5.10212,-4.0451 11.85326,-6.0677 20.25306,-6.0677 8.46196,0 15.21274,2.0226 20.25305,6.0677 1.1199,-0.51639 2.36429,-6.3689 3.73324,-17.55799 -3.23557,6.1968 -6.471,10.58599 -9.70614,13.16799 -1.0578,-7.48779 -1.5867,-13.38299 -1.58663,-17.68698 -8e-5,-1.1189 0.0621,-2.7111 0.18666,-4.7767 -1.24446,5.164 -2.67559,9.76849 -4.29323,13.81399 -0.87114,1.8074 -1.83561,3.5287 -2.89326,5.16399 -0.49784,0.68853 -0.80897,1.2049 -0.93331,1.5492 l -2.05329,-5.03489 c -0.0623,-0.34426 -0.15561,-0.68853 -0.27997,-1.0328 -0.49785,-1.8935 -1.30671,-6.412 -2.42661,-13.55499"
     id="WhiteQueen"
     inkscape:connector-curvature="0" />
  <path
     d="m 430.41,244.02541 0,25.14773 29.435,0 0,-25.14773 -29.435,0 m -15.234,55.12559 -2.4529,-2.69944 0,-9.80322 13.168,-14.63347 0,-28.41514 -11.361,-10.93983 0,-12.92878 3.7439,-3.97812 11.619,0 2.1947,2.41529 0,3.69397 3.7439,0 0,-3.69397 2.1947,-2.41529 14.201,0 2.1947,2.41529 0,3.69397 3.6148,0 0,-3.69397 2.3238,-2.41529 11.619,0 3.7439,3.97812 0,12.92878 -11.361,10.93983 0,28.41514 13.168,14.63347 0,9.80322 -2.4529,2.69944 -59.902,0 m 2.0656,-11.22409 0,5.54095 55.771,0 0,-5.54095 -55.771,0 m 12.652,-14.06561 -8.5206,9.09285 47.509,0 -8.5206,-9.09285 -30.468,0 m 10.328,-52.14211 0,3.69397 -1.9365,1.98906 -8.3915,0 -1.9365,-1.98906 0,-3.97812 -7.2296,0 -1.6783,1.98906 0,7.95624 8.7788,7.81416 34.599,0 8.7788,-7.81416 0,-7.95624 -1.6783,-1.98906 -7.2296,0 0,3.97812 -1.9365,1.98906 -8.3915,0 -1.9365,-1.98906 0,-3.69397 -9.8116,0"
     id="WhiteRook"
     inkscape:connector-curvature="0" />
  <path
     d="m 603.69954,266.73429 c -4.67238,0 -8.30974,-0.24069 -10.91318,-0.72206 0.46714,1.12318 0.70076,2.08593 0.70084,2.88825 -8e-5,1.20344 -0.20032,2.20628 -0.60071,3.0086 1.93555,-0.72206 5.53988,-1.0831 10.81313,-1.0831 5.27325,0 8.87742,0.36105 10.81313,1.0831 -0.40056,-0.8023 -0.60079,-1.80516 -0.60071,-3.0086 -8e-5,-0.96275 0.20015,-1.9255 0.60071,-2.88825 -3.13715,0.48137 -6.74147,0.72206 -10.81313,0.72206 m 0,-43.56429 c -1.40176,0 -2.36961,0.76216 -2.90348,2.28653 -0.13359,0.40115 -0.20032,0.80231 -0.20024,1.20344 -8e-5,1.76508 0.73412,2.92834 2.20264,3.48998 0.2669,0.0802 0.56727,0.12035 0.90108,0.12035 1.53507,0 2.53627,-0.84243 3.0036,-2.52722 0.0666,-0.32093 0.10003,-0.68196 0.10013,-1.0831 -10e-5,-1.60455 -0.66755,-2.68765 -2.0024,-3.24928 -0.40056,-0.16047 -0.76768,-0.24068 -1.10132,-0.24068 m 0,51.14568 c -2.53643,0 -5.80705,0.2808 -9.81193,0.8424 -1.13467,0.16048 -1.80216,0.92264 -2.0024,2.28654 0,0.96275 1.83543,1.56447 5.5066,1.80515 -0.33381,-0.0802 -0.20031,-0.12035 0.40049,-0.12035 l 5.90709,0 c 7.80953,0 11.71429,-0.5616 11.71429,-1.68481 -9e-5,-1.84524 -1.93571,-2.84817 -5.80697,-3.0086 l -2.90348,0 c -0.86781,0 -1.602,-0.0401 -2.20265,-0.12035 l -0.80096,0 m -0.10012,-11.07145 c 7.47558,0 12.04776,-0.8424 13.71669,-2.52722 1.13459,-1.04301 1.9689,-3.81092 2.503,-8.30373 -0.33381,-4.01143 -2.50308,-7.86243 -6.50781,-11.55338 -3.73787,-3.53006 -7.00849,-5.49574 -9.81193,-5.89685 -2.6032,0.40115 -5.7737,2.36679 -9.51102,5.89685 -3.93804,3.69057 -6.07391,7.54158 -6.40769,11.55338 0.46724,4.17195 1.20144,6.81952 2.20264,7.9427 0.26698,0.32092 0.56735,0.60171 0.90108,0.84239 1.6687,1.36396 5.97379,2.04585 12.91558,2.04585 m -1.70204,-5.89685 0,-5.29513 -3.40409,0 0,-4.69341 3.40409,0 0,-5.17479 3.60432,0 0,5.17479 3.40409,0 0,4.69341 -3.40409,0 0,5.29513 -3.60432,0 m 1.60192,24.54978 c -0.60079,0 -2.36961,1.40404 -5.30637,4.21203 -2.06925,1.68481 -5.40649,2.68765 -10.01201,3.0086 -3.33732,0 -6.00721,0.20056 -8.00961,0.60172 -2.13588,0.56159 -3.20385,1.64473 -3.20385,3.24928 0.20024,1.60455 0.90108,2.40688 2.10252,2.40688 l 5.30637,-0.96275 c 3.47078,0 7.10853,-0.5616 10.91317,-1.68482 4.33844,-1.36386 7.1418,-3.53005 8.40979,-6.49857 1.80208,4.25222 6.4743,6.81952 14.01682,7.70201 l 2.60312,0.48139 2.60312,0 5.40649,0.96275 c 1.20137,0 1.90221,-0.8023 2.10252,-2.40688 -7e-5,-1.60455 -1.06805,-2.68765 -3.20384,-3.24928 l -10.71309,-0.96276 c -3.40416,-0.32092 -6.67478,-1.9255 -9.81193,-4.81375 -1.40176,-1.36396 -2.46973,-2.04585 -3.20384,-2.04585 m 0.20025,10.4702 c -2.60321,3.12894 -6.54124,5.05444 -11.81434,5.77651 -2.13587,0.24067 -5.87374,0.80228 -11.2133,1.68481 -1.40168,0.32093 -2.20264,1.08309 -2.40288,2.28653 -1.26821,-0.40114 -3.13707,-2.88825 -5.60673,-7.46132 -0.60072,-1.12317 -1.03455,-1.88541 -1.30156,-2.28653 2.20264,-5.05444 4.93923,-7.58166 8.2097,-7.58166 l 5.90709,0.36103 c 2.73659,0 5.94043,-0.76219 9.61184,-2.28653 -4.739,-0.72206 -7.10853,-2.44697 -7.10853,-5.17479 l 2.0024,-9.14613 0,-0.24071 c -4.0048,-5.29513 -6.00721,-10.26978 -6.00721,-14.92227 0,-5.29513 2.1693,-10.10851 6.50781,-14.44126 3.80449,-3.85101 6.60785,-5.89685 8.40978,-6.13754 -1.46853,-2.16619 -2.20272,-4.41254 -2.20264,-6.73925 -8e-5,-3.69058 1.53507,-6.0172 4.60553,-6.97995 0.73412,-0.24058 1.53507,-0.36094 2.40288,-0.36104 3.27054,1e-4 5.40641,1.48421 6.40769,4.45272 l 0.5006,2.52722 0,0.36102 c -8e-5,2.48713 -0.70093,4.73349 -2.10252,6.73925 1.80208,0.2407 4.63879,2.32662 8.5106,6.25788 4.27166,4.25212 6.40761,9.02579 6.40769,14.32102 -9e-5,4.4928 -2.00248,9.46717 -6.00721,14.92226 -8e-5,1.12328 0.33365,2.72783 1.0012,4.81376 0.66738,2.5673 1.00112,4.09169 1.0012,4.57307 -8e-5,2.72782 -2.36961,4.45272 -7.10853,5.17478 3.60425,1.52439 6.80809,2.28654 9.61184,2.28654 l 5.90709,-0.36104 c 3.27054,0 6.00713,2.52722 8.2097,7.58167 l -3.40408,6.25788 c -1.13475,1.76507 -2.30285,2.92833 -3.50421,3.48997 -0.26707,-1.60455 -2.20272,-2.60748 -5.80697,-3.0086 0.46714,0 -0.53405,-0.12035 -3.0036,-0.36103 -8.34309,-0.96275 -13.88343,-3.08886 -16.62026,-6.37822"
     id="WhiteBishop"
     inkscape:connector-curvature="0" />
  <path
     d="m 749.15511,265.84465 c 1.01114,0 1.51675,0.89371 1.51675,2.68116 0,2.35193 -0.9028,3.52784 -2.70848,3.52784 -0.72225,0 -1.08339,-0.7526 -1.08339,-2.25782 0,-2.63416 0.75837,-3.95118 2.27512,-3.95118 m 7.80043,-17.21566 c -1.01114,0 -1.51675,-0.79963 -1.51675,-2.39893 0,-2.54005 1.15564,-4.60965 3.46685,-6.20901 1.01114,-0.65852 1.95011,-0.98778 2.81682,-0.98778 1.51675,0 2.34738,0.65852 2.4918,1.97559 0,2.16371 -1.30007,4.23341 -3.90021,6.209 -1.30007,0.94079 -2.41955,1.41114 -3.35851,1.41114 m 0.86671,-26.5296 c 0.2889,1.31702 0.43335,2.21082 0.43335,2.68116 0,0.28224 -0.10833,1.03483 -0.32502,2.25782 1.15565,0 2.74465,-0.7526 4.76693,-2.25782 -1.95011,-1.31702 -3.5752,-2.21082 -4.87527,-2.68116 m -12.89245,48.54269 c 0.43337,2.25782 1.589,3.90418 3.46686,4.93898 0.72226,0.37631 1.40841,0.56444 2.05844,0.56444 l 0.21669,0 c 0.14445,0 0.93897,-0.56444 2.38346,-1.69336 0.43335,-0.37631 0.79449,-0.56445 1.08339,-0.56445 l 0.43335,0 c 0.36113,0 0.54171,0.28222 0.54171,0.84666 l -0.65004,2.68117 c 0,0.84668 0.50558,1.27002 1.51675,1.27002 0.14446,0 1.04731,-1.64636 2.70848,-4.93898 3.17792,-6.39712 7.69208,-11.2421 13.54198,-14.53439 0.5778,-5.08009 2.02236,-9.54873 4.33357,-13.40526 0.57782,-1.03484 1.15565,-1.55225 1.73343,-1.55225 0.65004,0 0.97505,0.61149 0.97505,1.83448 0,0.28225 -0.65003,2.96339 -1.9501,8.04348 -0.50559,2.16371 -0.75839,3.76307 -0.75839,4.79787 0,0.28222 0.0723,0.89372 0.2167,1.83448 0,6.67935 -2.16679,13.68836 -6.50036,21.02606 -2.88907,5.08009 -4.47799,9.12539 -4.76692,12.13621 l 35.75194,0 c 0.28892,-4.32752 0.43337,-7.52603 0.43337,-9.59573 0,-19.37991 -4.65859,-34.85542 -13.97585,-46.42653 -2.81682,-3.38673 -5.09194,-5.08009 -6.82537,-5.08009 l -6.50035,0 c -0.57782,-0.37631 -1.15565,-2.25782 -1.73343,-5.64455 -0.43335,-2.72817 -0.97505,-4.42153 -1.62509,-5.0801 -0.86671,3.38673 -3.53911,6.02089 -8.0171,7.90237 -2.38346,0.94075 -4.04463,1.88148 -4.9836,2.82228 -0.79449,3.29261 -3.14184,9.97207 -7.04205,20.03793 -3.82796,9.97196 -5.85032,15.89852 -6.067,17.78077 m 60.66996,28.50475 -45.39421,0 c 0.2889,-6.49123 2.16678,-12.70023 5.63364,-18.62679 2.67239,-4.70376 4.26131,-7.57314 4.76692,-8.60794 1.01114,-2.0697 1.62509,-4.56264 1.84177,-7.47903 -4.69467,2.63405 -8.34212,6.39712 -10.94218,11.2891 l -1.51675,3.24562 c -1.08339,2.25782 -1.76951,3.52784 -2.05844,3.81007 -0.43335,0.47037 -0.9028,0.70557 -1.40841,0.70557 -2.23896,0 -3.75579,-0.9878 -4.55025,-2.96339 -0.14446,-0.28223 -0.21669,-0.61149 -0.21669,-0.9878 -0.72226,0.47038 -1.44449,0.70557 -2.16678,0.70557 -3.46685,0 -6.21142,-2.82227 -8.23378,-8.46682 0.57781,-4.1393 3.61128,-13.68836 9.10016,-28.64576 0.57781,-1.41114 1.01122,-2.54005 1.30007,-3.38673 2.16678,-6.30312 3.25018,-11.0541 3.25018,-14.25238 0,-0.47037 -0.21667,-3.1045 -0.65005,-7.90237 l 0.86672,0 c 3.90021,0 7.61983,1.59925 11.15868,4.79787 1.95011,-4.42153 3.5752,-6.63235 4.87527,-6.63235 2.31121,1.59925 3.90021,3.85707 4.76692,6.77346 l 1.19173,4.65675 c 0.72225,-0.18816 1.33616,-0.28222 1.84177,-0.28222 5.77806,0 11.48429,4.79786 17.11777,14.39338 6.5726,11.19509 9.85878,26.5296 9.85878,46.00351 0,4.42153 -0.14444,8.37272 -0.43335,11.85312"
     id="WhiteKnight"
     inkscape:connector-curvature="0" />
  <path
     d="m 980.67374,293.48068 c -1.2e-4,-9.92819 -2.86463,-17.35044 -8.59354,-22.26784 -1.90982,-1.70198 -4.27171,-3.30936 -7.08589,-4.82226 -3.91998,-2.17471 -5.8799,-4.16035 -5.87979,-5.95692 -1.1e-4,-0.94554 1.00496,-1.98564 3.01528,-3.12029 3.1157,-1.60738 4.97508,-3.49854 5.57826,-5.67325 0.20088,-0.85096 0.3014,-1.89104 0.30151,-3.12028 -1.1e-4,-4.34953 -2.36212,-7.75348 -7.08589,-10.21186 l -2.71375,-1.8438 c -0.50268,-0.47276 -0.75395,-0.99282 -0.75382,-1.56015 -1.3e-4,-1.60738 0.60291,-3.21488 1.80916,-4.82226 0.80396,-1.04008 1.206,-2.2693 1.20611,-3.68761 -1.1e-4,-2.45838 -1.4072,-4.25494 -4.22138,-5.38959 -0.90471,-0.28368 -1.80928,-0.4255 -2.71375,-0.4255 -2.81441,0 -4.82456,1.18189 -6.03055,3.54579 -0.40214,0.75644 -0.60318,1.5129 -0.60307,2.2693 -1.1e-4,0.85099 0.65322,2.45837 1.95993,4.82226 0.80396,1.32372 1.15573,2.55296 1.05537,3.68761 -1.6e-4,1.13465 -1.15601,2.2693 -3.46756,3.40395 -4.62358,2.55297 -6.93525,5.95692 -6.93514,10.21186 -1.5e-4,3.68761 1.95982,6.61882 5.87979,8.79353 1.9096,1.22914 2.8644,2.2693 2.86451,3.12029 -1.3e-4,1.79657 -1.96004,3.78221 -5.87978,5.95692 -7.23666,4.16034 -11.86024,9.21903 -13.87004,15.17627 -1.10559,3.30936 -1.6584,7.28064 -1.6584,11.91339 l 53.82301,0 m -59.09915,5.67325 c -0.10055,-1.13465 -0.15078,-3.30936 -0.15078,-6.52424 0,-11.62994 3.61833,-20.32878 10.85499,-26.09651 2.41222,-1.89105 5.47759,-3.73486 9.19659,-5.53142 -3.81931,-1.13465 -6.38229,-3.8768 -7.68895,-8.22622 -0.50253,-1.41831 -0.75382,-2.88386 -0.75382,-4.39677 0,-6.33505 3.41735,-10.87376 10.25193,-13.61624 -1.6083,-2.74214 -2.41233,-5.43683 -2.41222,-8.08438 -1.2e-4,-4.34953 2.26134,-7.5643 6.78437,-9.64453 1.9096,-0.851 3.96996,-1.27648 6.18132,-1.27648 5.12585,0 8.89494,1.84381 11.30728,5.53142 1.10548,1.60738 1.65828,3.40395 1.6584,5.38959 -1.2e-4,2.55296 -0.90471,5.24776 -2.71375,8.08438 6.93502,2.64756 10.40258,7.18605 10.4027,13.61624 -1.3e-4,5.01145 -1.96004,8.79354 -5.87979,11.34651 -0.80418,0.56733 -1.70873,0.99283 -2.71374,1.27648 9.04571,4.34953 14.92573,9.88095 17.63971,16.59459 1.7085,4.16034 2.56286,9.17179 2.56298,15.03455 -1.2e-4,3.12029 -0.0503,5.295 -0.15078,6.52424 l -64.37647,0"
     id="WhitePawn"
     inkscape:connector-curvature="0" />
</svg>
